<svg id="visual" viewBox="0 0 900 900" width="900" height="900" xmlns="http://www.w3.org/2000/svg" xmlns:xlink="http://www.w3.org/1999/xlink" version="1.1"><g transform="translate(407.578211031763 471.6556779935388)"><path d="M223.1 -314.2C294.9 -254.8 362.8 -197.4 404.1 -119.7C445.4 -41.9 460 56.1 443.3 155.3C426.6 254.5 378.6 354.8 299.5 376C220.4 397.1 110.2 339.2 16 317.2C-78.2 295.1 -156.4 309 -223.1 283.8C-289.8 258.6 -345.1 194.3 -360.5 122.8C-376 51.3 -351.6 -27.5 -313.5 -88.7C-275.5 -149.9 -223.9 -193.5 -169.3 -258.4C-114.8 -323.4 -57.4 -409.7 9.1 -422.2C75.6 -434.8 151.3 -373.5 223.1 -314.2" fill="#BB004B"></path></g></svg>