<svg xmlns="http://www.w3.org/2000/svg" xmlns:xlink="http://www.w3.org/1999/xlink" id="Layer_1" x="0px" y="0px" width="297.64px" height="97.84px" viewBox="0 0 297.64 97.84" xml:space="preserve">
<path fill="#589491" d="M29.123,41.309c-2.705-3.097-5.999-4.646-9.882-4.646c-1.623,0-3.135,0.332-4.536,0.996  c-1.402,0.663-2.618,1.548-3.651,2.654c-1.033,1.106-1.844,2.397-2.434,3.872c-0.59,1.475-0.885,3-0.885,4.573  c0,1.77,0.295,3.405,0.885,4.904c0.59,1.501,1.413,2.792,2.471,3.872c1.057,1.082,2.31,1.931,3.761,2.545  C16.302,60.694,17.913,61,19.683,61c1.917,0,3.651-0.404,5.199-1.216c1.549-0.812,2.962-1.93,4.241-3.356v8.481  c-1.524,0.837-3.061,1.427-4.609,1.771c-1.549,0.343-3.184,0.517-4.905,0.517c-2.557,0-4.954-0.456-7.19-1.364  c-2.238-0.91-4.193-2.176-5.864-3.799c-1.672-1.623-2.999-3.54-3.982-5.753c-0.984-2.212-1.475-4.621-1.475-7.227  c0-2.655,0.479-5.126,1.438-7.412c0.959-2.287,2.286-4.252,3.983-5.9c1.696-1.647,3.698-2.937,6.01-3.872  c2.31-0.934,4.794-1.401,7.449-1.401c1.573,0,3.159,0.184,4.757,0.552c1.597,0.37,3.061,0.948,4.388,1.734V41.309z"></path>
<path fill="#589491" d="M50.732,36.81c-1.622,0-3.16,0.321-4.609,0.959c-1.451,0.64-2.705,1.501-3.762,2.582  c-1.057,1.081-1.893,2.36-2.507,3.835c-0.616,1.474-0.922,3.023-0.922,4.646s0.306,3.159,0.922,4.609  c0.614,1.451,1.45,2.729,2.507,3.836c1.057,1.105,2.311,1.979,3.762,2.617c1.449,0.64,2.987,0.959,4.609,0.959  s3.159-0.319,4.609-0.959c1.45-0.639,2.704-1.512,3.762-2.617c1.056-1.107,1.892-2.385,2.507-3.836  c0.615-1.45,0.922-2.986,0.922-4.609s-0.307-3.172-0.922-4.646c-0.615-1.475-1.451-2.754-2.507-3.835  c-1.058-1.081-2.312-1.942-3.762-2.582C53.891,37.131,52.354,36.81,50.732,36.81 M50.732,30.468c2.556,0,4.965,0.468,7.228,1.401  c2.26,0.935,4.215,2.225,5.863,3.872c1.647,1.648,2.95,3.59,3.909,5.827c0.959,2.237,1.438,4.659,1.438,7.264  c0,2.607-0.479,5.027-1.438,7.264c-0.959,2.238-2.262,4.18-3.909,5.827c-1.648,1.647-3.603,2.938-5.863,3.871  c-2.263,0.935-4.672,1.401-7.228,1.401c-2.607,0-5.028-0.467-7.264-1.401c-2.238-0.933-4.18-2.224-5.827-3.871  c-1.648-1.647-2.95-3.589-3.908-5.827c-0.959-2.236-1.438-4.656-1.438-7.264c0-2.605,0.479-5.027,1.438-7.264  c0.958-2.237,2.26-4.179,3.908-5.827c1.647-1.647,3.589-2.937,5.827-3.872C45.704,30.936,48.125,30.468,50.732,30.468"></path>
<path fill="#589491" d="M81.633,35.852h0.147c0.983-1.523,2.287-2.803,3.909-3.835c1.623-1.033,3.368-1.549,5.236-1.549  c2.262,0,4.204,0.542,5.827,1.623c1.622,1.082,2.998,2.581,4.13,4.499c1.081-1.868,2.568-3.357,4.462-4.463  c1.892-1.106,3.946-1.659,6.158-1.659c2.261,0,4.13,0.406,5.605,1.217c1.475,0.811,2.642,1.906,3.503,3.282  c0.86,1.377,1.463,2.963,1.807,4.757c0.343,1.795,0.516,3.676,0.516,5.642v20.65h-6.637V46.472c0-1.081-0.063-2.224-0.184-3.429  c-0.124-1.205-0.406-2.298-0.849-3.282c-0.442-0.983-1.082-1.795-1.917-2.434c-0.837-0.639-1.992-0.959-3.466-0.959  c-1.771,0-3.16,0.419-4.167,1.254c-1.009,0.836-1.771,1.88-2.287,3.134c-0.516,1.254-0.836,2.618-0.959,4.094  c-0.123,1.475-0.184,2.876-0.184,4.203v16.963h-6.638v-18.29c0-1.13-0.049-2.36-0.147-3.688c-0.099-1.327-0.345-2.556-0.737-3.687  c-0.395-1.131-1.021-2.077-1.881-2.84c-0.861-0.762-2.054-1.143-3.577-1.143c-1.77,0-3.171,0.406-4.204,1.217  c-1.032,0.811-1.807,1.844-2.323,3.098c-0.516,1.253-0.837,2.63-0.959,4.129c-0.123,1.501-0.184,2.914-0.184,4.241v16.963h-6.638  V31.5h6.638V35.852z"></path>
<path fill="#589491" d="M148.451,61.295c1.818,0,3.417-0.332,4.794-0.994c1.375-0.664,2.543-1.574,3.503-2.729  c0.958-1.153,1.684-2.481,2.175-3.983c0.492-1.498,0.737-3.109,0.737-4.83c0-1.671-0.245-3.257-0.737-4.757  c-0.491-1.5-1.217-2.814-2.175-3.945c-0.96-1.131-2.141-2.029-3.54-2.692c-1.401-0.665-2.987-0.996-4.757-0.996  c-1.722,0-3.258,0.344-4.61,1.032c-1.353,0.689-2.496,1.611-3.429,2.766c-0.935,1.156-1.648,2.471-2.139,3.945  c-0.492,1.475-0.737,3.024-0.737,4.647c0,1.622,0.245,3.184,0.737,4.683c0.491,1.5,1.192,2.839,2.102,4.02  c0.909,1.18,2.04,2.114,3.393,2.803C145.119,60.952,146.681,61.295,148.451,61.295 M131.267,2h6.638v35.253h0.147  c1.376-2.065,3.072-3.712,5.089-4.941c2.015-1.229,4.326-1.844,6.933-1.844c2.507,0,4.756,0.504,6.746,1.511  c1.992,1.009,3.688,2.336,5.09,3.983c1.402,1.648,2.482,3.565,3.244,5.752c0.762,2.189,1.144,4.463,1.144,6.823  c0,2.459-0.368,4.819-1.106,7.08c-0.736,2.262-1.808,4.253-3.207,5.973c-1.401,1.723-3.123,3.086-5.164,4.094  c-2.039,1.008-4.387,1.513-7.043,1.513c-2.458,0-4.695-0.603-6.71-1.808c-2.017-1.203-3.687-2.789-5.015-4.756h-0.147v5.383h-6.638  V2z"></path>
<rect x="173.084" y="2" fill="#589491" width="6.637" height="64.016"></rect>
<path fill="#589491" d="M204.057,61.296c1.818,0,3.417-0.332,4.794-0.996c1.376-0.664,2.545-1.573,3.503-2.728  c0.959-1.155,1.684-2.483,2.176-3.983c0.491-1.499,0.738-3.109,0.738-4.831c0-1.671-0.247-3.257-0.738-4.757  c-0.492-1.499-1.217-2.814-2.176-3.945c-0.958-1.131-2.139-2.028-3.54-2.692s-2.985-0.996-4.757-0.996  c-1.721,0-3.258,0.344-4.609,1.033c-1.353,0.689-2.496,1.611-3.429,2.765c-0.937,1.156-1.647,2.471-2.14,3.946  s-0.736,3.024-0.736,4.646c0,1.623,0.244,3.184,0.736,4.684s1.191,2.84,2.103,4.02c0.909,1.18,2.039,2.115,3.392,2.803  C200.726,60.953,202.287,61.296,204.057,61.296 M221.535,66.016h-6.637v-5.384h-0.148c-1.328,1.967-2.986,3.554-4.978,4.757  c-1.991,1.204-4.241,1.807-6.748,1.807c-2.655,0-5.004-0.504-7.043-1.512c-2.042-1.007-3.762-2.371-5.163-4.093  c-1.4-1.722-2.471-3.712-3.208-5.974s-1.106-4.621-1.106-7.08c0-2.36,0.381-4.633,1.144-6.822c0.761-2.187,1.845-4.105,3.244-5.753  c1.401-1.646,3.11-2.974,5.127-3.982c2.015-1.007,4.276-1.512,6.784-1.512c2.556,0,4.843,0.615,6.859,1.844  c2.016,1.229,3.711,2.876,5.088,4.941h0.148V31.5h6.637V66.016z"></path>
<path fill="#589491" d="M255.536,41.309c-2.706-3.097-5.999-4.646-9.883-4.646c-1.623,0-3.136,0.332-4.536,0.996  c-1.4,0.663-2.618,1.548-3.65,2.654c-1.033,1.106-1.844,2.397-2.434,3.872c-0.59,1.475-0.885,3-0.885,4.573  c0,1.77,0.295,3.405,0.885,4.904c0.59,1.501,1.413,2.792,2.47,3.872c1.058,1.082,2.312,1.931,3.763,2.545  c1.448,0.615,3.061,0.921,4.83,0.921c1.918,0,3.65-0.404,5.199-1.216s2.961-1.93,4.241-3.356v8.481  c-1.524,0.837-3.062,1.427-4.61,1.771c-1.549,0.343-3.184,0.517-4.904,0.517c-2.558,0-4.953-0.456-7.19-1.364  c-2.237-0.91-4.192-2.176-5.862-3.799c-1.674-1.623-3-3.54-3.984-5.753c-0.983-2.212-1.475-4.621-1.475-7.227  c0-2.655,0.48-5.126,1.439-7.412c0.959-2.287,2.285-4.252,3.982-5.9c1.695-1.647,3.698-2.937,6.01-3.872  c2.311-0.934,4.795-1.401,7.449-1.401c1.573,0,3.16,0.184,4.756,0.552c1.599,0.37,3.062,0.948,4.39,1.734V41.309z"></path>
<polygon fill="#589491" points="269.768,44.48 282.749,31.5 291.526,31.5 276.775,45.809 293,66.016 284.371,66.016 272.055,50.307   269.768,52.593 269.768,66.016 263.131,66.016 263.131,2 269.768,2 "></polygon>
<path fill="#589491" d="M2.978,72.879v10.173h0.044c0.307-0.556,0.743-0.978,1.307-1.263s1.161-0.428,1.791-0.428  c0.717,0,1.314,0.113,1.791,0.34c0.475,0.228,0.849,0.541,1.12,0.944s0.462,0.876,0.571,1.417c0.11,0.542,0.165,1.129,0.165,1.758  v6.131H7.79v-5.89c0-0.438-0.022-0.837-0.066-1.196s-0.147-0.67-0.308-0.935c-0.161-0.263-0.392-0.464-0.692-0.603  c-0.3-0.141-0.7-0.209-1.197-0.209c-0.645,0-1.14,0.127-1.483,0.383c-0.345,0.257-0.594,0.584-0.748,0.979  c-0.154,0.396-0.245,0.835-0.274,1.318c-0.03,0.484-0.044,0.96-0.044,1.428v4.725H1V72.879H2.978z"></path>
<path fill="#589491" d="M16.205,91.951h-1.977V81.668h1.977V91.951z M15.216,75.582c0.381,0,0.703,0.135,0.967,0.406  c0.263,0.271,0.396,0.598,0.396,0.979s-0.133,0.698-0.396,0.955c-0.264,0.256-0.586,0.385-0.967,0.385  c-0.381,0-0.703-0.129-0.966-0.385c-0.264-0.257-0.396-0.574-0.396-0.955s0.132-0.707,0.396-0.979  C14.513,75.717,14.834,75.582,15.216,75.582"></path>
<path fill="#589491" d="M25.082,90.545c0.542,0,1.018-0.1,1.428-0.297c0.41-0.198,0.758-0.469,1.044-0.813  c0.285-0.345,0.501-0.74,0.648-1.188c0.146-0.446,0.219-0.926,0.219-1.438c0-0.498-0.073-0.97-0.219-1.418  c-0.147-0.446-0.363-0.838-0.648-1.175c-0.286-0.337-0.638-0.604-1.055-0.803c-0.418-0.197-0.89-0.295-1.417-0.295  c-0.513,0-0.971,0.102-1.373,0.307c-0.404,0.206-0.744,0.48-1.022,0.824c-0.279,0.344-0.491,0.736-0.637,1.175  c-0.147,0.44-0.22,0.901-0.22,1.385s0.073,0.948,0.22,1.396c0.146,0.447,0.355,0.846,0.626,1.197s0.607,0.631,1.011,0.836  C24.089,90.441,24.554,90.545,25.082,90.545 M30.289,91.752c0,0.88-0.074,1.693-0.22,2.439c-0.146,0.748-0.406,1.393-0.78,1.934  c-0.373,0.543-0.886,0.964-1.538,1.265c-0.652,0.299-1.475,0.45-2.472,0.45c-0.718,0-1.377-0.107-1.977-0.319  c-0.601-0.212-1.121-0.519-1.56-0.922c-0.44-0.403-0.784-0.892-1.033-1.461c-0.249-0.571-0.381-1.224-0.395-1.956h1.977  c0,0.923,0.286,1.637,0.857,2.143c0.571,0.504,1.311,0.758,2.219,0.758c0.616,0,1.113-0.1,1.494-0.297  c0.381-0.198,0.678-0.465,0.89-0.803c0.212-0.337,0.359-0.736,0.44-1.197c0.08-0.461,0.121-0.955,0.121-1.483v-1.955h-0.044  c-0.396,0.586-0.894,1.06-1.495,1.418c-0.6,0.358-1.266,0.537-1.999,0.537c-0.791,0-1.494-0.149-2.109-0.449  c-0.615-0.301-1.132-0.707-1.549-1.221c-0.418-0.511-0.733-1.104-0.945-1.778c-0.213-0.674-0.319-1.377-0.319-2.109  c0-0.703,0.114-1.381,0.341-2.033c0.227-0.651,0.549-1.223,0.967-1.713c0.417-0.491,0.923-0.887,1.516-1.188  c0.593-0.3,1.263-0.449,2.01-0.449c0.776,0,1.465,0.182,2.066,0.549c0.6,0.365,1.106,0.871,1.516,1.516h0.044v-1.758h1.977V91.752z"></path>
<path fill="#589491" d="M36.133,72.879v10.173h0.044c0.307-0.556,0.743-0.978,1.307-1.263s1.161-0.428,1.791-0.428  c0.717,0,1.314,0.113,1.791,0.34c0.475,0.228,0.849,0.541,1.12,0.944s0.462,0.876,0.571,1.417c0.11,0.542,0.165,1.129,0.165,1.758  v6.131h-1.977v-5.89c0-0.438-0.022-0.837-0.066-1.196c-0.045-0.359-0.147-0.67-0.308-0.935c-0.161-0.263-0.392-0.464-0.692-0.603  c-0.3-0.141-0.7-0.209-1.198-0.209c-0.644,0-1.139,0.127-1.482,0.383c-0.345,0.257-0.594,0.584-0.748,0.979  c-0.154,0.396-0.245,0.835-0.274,1.318c-0.03,0.484-0.044,0.96-0.044,1.428v4.725h-1.978V72.879H36.133z"></path>
<polygon fill="#589491" points="49.206,91.951 47.229,91.951 47.229,83.513 46.152,83.513 46.152,81.668 47.229,81.668   47.229,77.734 49.206,77.734 49.206,81.668 51.14,81.668 51.14,83.513 49.206,83.513 "></polygon>
<path fill="#589491" d="M60.566,85.645c-0.117-0.775-0.421-1.398-0.912-1.867c-0.491-0.469-1.132-0.703-1.923-0.703  c-0.776,0-1.428,0.242-1.955,0.725c-0.527,0.484-0.85,1.1-0.967,1.846H60.566z M54.699,87.139c0,0.44,0.073,0.865,0.22,1.274  c0.146,0.411,0.355,0.772,0.626,1.088s0.597,0.567,0.978,0.758c0.381,0.19,0.805,0.286,1.274,0.286c0.762,0,1.37-0.18,1.824-0.539  s0.871-0.846,1.252-1.461l1.67,0.945c-0.483,0.894-1.146,1.586-1.988,2.076c-0.843,0.49-1.769,0.735-2.78,0.735  c-0.791,0-1.497-0.139-2.12-0.417c-0.623-0.277-1.15-0.658-1.582-1.143c-0.432-0.483-0.766-1.055-1-1.713  c-0.234-0.659-0.351-1.369-0.351-2.131c0-0.791,0.106-1.524,0.319-2.197c0.212-0.674,0.527-1.262,0.944-1.758  c0.418-0.498,0.937-0.887,1.56-1.166c0.623-0.278,1.351-0.416,2.186-0.416c0.821,0,1.531,0.142,2.132,0.428  c0.6,0.285,1.098,0.674,1.494,1.165c0.395,0.489,0.692,1.069,0.89,1.735c0.198,0.666,0.296,1.381,0.296,2.142v0.308H54.699z"></path>
<path fill="#589491" d="M73.09,84.59c-0.806-0.922-1.787-1.384-2.944-1.384c-0.484,0-0.934,0.099-1.352,0.297  c-0.417,0.197-0.78,0.461-1.087,0.791c-0.308,0.329-0.549,0.714-0.725,1.153c-0.176,0.439-0.264,0.895-0.264,1.361  c0,0.528,0.088,1.016,0.264,1.463c0.176,0.445,0.42,0.83,0.736,1.152c0.314,0.323,0.688,0.575,1.12,0.758  c0.432,0.184,0.912,0.275,1.44,0.275c0.571,0,1.087-0.121,1.548-0.363c0.462-0.24,0.883-0.574,1.264-1v2.527  c-0.455,0.25-0.912,0.426-1.373,0.527c-0.462,0.103-0.949,0.154-1.461,0.154c-0.763,0-1.476-0.137-2.143-0.406  c-0.667-0.271-1.249-0.648-1.746-1.133c-0.499-0.482-0.894-1.054-1.187-1.713c-0.293-0.66-0.44-1.377-0.44-2.152  c0-0.791,0.143-1.528,0.429-2.209c0.286-0.682,0.681-1.267,1.186-1.758c0.506-0.49,1.102-0.875,1.791-1.153  c0.689-0.279,1.428-0.417,2.219-0.417c0.469,0,0.941,0.055,1.418,0.164c0.476,0.109,0.912,0.281,1.307,0.517V84.59z"></path>
<path fill="#589491" d="M78.495,72.879v10.173h0.044c0.307-0.556,0.743-0.978,1.307-1.263s1.161-0.428,1.791-0.428  c0.717,0,1.314,0.113,1.791,0.34c0.475,0.228,0.849,0.541,1.12,0.944s0.462,0.876,0.571,1.417c0.11,0.542,0.165,1.129,0.165,1.758  v6.131h-1.977v-5.89c0-0.438-0.022-0.837-0.066-1.196s-0.147-0.67-0.308-0.935c-0.161-0.263-0.392-0.464-0.692-0.603  c-0.3-0.141-0.7-0.209-1.197-0.209c-0.645,0-1.14,0.127-1.483,0.383c-0.345,0.257-0.594,0.584-0.748,0.979  c-0.154,0.396-0.245,0.835-0.274,1.318c-0.03,0.484-0.044,0.96-0.044,1.428v4.725h-1.978V72.879H78.495z"></path>
<polygon fill="#589491" points="99.213,91.951 97.236,91.951 97.236,83.513 96.16,83.513 96.16,81.668 97.236,81.668 97.236,77.734   99.213,77.734 99.213,81.668 101.147,81.668 101.147,83.513 99.213,83.513 "></polygon>
<path fill="#589491" d="M107.958,90.545c0.542,0,1.018-0.1,1.428-0.297c0.41-0.198,0.758-0.469,1.044-0.813  c0.285-0.345,0.501-0.74,0.648-1.187c0.146-0.447,0.219-0.927,0.219-1.44c0-0.496-0.073-0.969-0.219-1.416  c-0.147-0.447-0.363-0.839-0.648-1.176c-0.286-0.337-0.638-0.604-1.055-0.802s-0.89-0.297-1.417-0.297  c-0.513,0-0.971,0.103-1.373,0.308c-0.404,0.206-0.744,0.48-1.022,0.824c-0.279,0.344-0.491,0.736-0.637,1.175  c-0.147,0.44-0.22,0.901-0.22,1.384c0,0.484,0.073,0.949,0.22,1.396c0.146,0.447,0.355,0.846,0.626,1.197s0.607,0.631,1.011,0.836  C106.965,90.441,107.43,90.545,107.958,90.545 M113.166,91.951h-1.977v-1.604h-0.044c-0.396,0.586-0.89,1.059-1.483,1.418  c-0.594,0.357-1.264,0.536-2.011,0.536c-0.791,0-1.491-0.149-2.098-0.45c-0.608-0.3-1.121-0.707-1.538-1.22  c-0.418-0.512-0.736-1.104-0.956-1.778c-0.22-0.674-0.33-1.377-0.33-2.109c0-0.704,0.114-1.381,0.341-2.033  c0.227-0.65,0.549-1.223,0.967-1.714c0.417-0.49,0.926-0.886,1.527-1.187c0.6-0.3,1.274-0.449,2.021-0.449  c0.762,0,1.443,0.182,2.044,0.549c0.6,0.365,1.106,0.855,1.516,1.472h0.044v-1.714h1.977V91.951z"></path>
<rect x="117.121" y="72.881" fill="#589491" width="1.977" height="19.07"></rect>
<path fill="#589491" d="M130.26,85.645c-0.117-0.775-0.422-1.398-0.912-1.867c-0.491-0.469-1.132-0.703-1.923-0.703  c-0.776,0-1.428,0.242-1.955,0.725c-0.528,0.484-0.85,1.1-0.967,1.846H130.26z M124.393,87.139c0,0.44,0.073,0.865,0.22,1.274  c0.146,0.411,0.354,0.772,0.627,1.088c0.27,0.315,0.596,0.567,0.977,0.758c0.38,0.19,0.806,0.286,1.275,0.286  c0.76,0,1.369-0.18,1.824-0.539c0.453-0.359,0.87-0.846,1.252-1.461l1.67,0.945c-0.484,0.894-1.147,1.586-1.989,2.076  c-0.843,0.49-1.769,0.735-2.78,0.735c-0.791,0-1.498-0.139-2.12-0.417c-0.622-0.277-1.15-0.658-1.582-1.143  c-0.432-0.483-0.766-1.055-1-1.713c-0.234-0.659-0.351-1.369-0.351-2.131c0-0.791,0.105-1.524,0.318-2.197  c0.213-0.674,0.528-1.262,0.945-1.758c0.418-0.498,0.937-0.887,1.561-1.166c0.622-0.278,1.35-0.416,2.185-0.416  c0.821,0,1.531,0.142,2.131,0.428c0.601,0.285,1.1,0.674,1.495,1.165c0.395,0.489,0.692,1.069,0.89,1.735  c0.197,0.666,0.297,1.381,0.297,2.142v0.308H124.393z"></path>
<path fill="#589491" d="M137.202,83.052h0.044c0.308-0.556,0.743-0.977,1.308-1.263c0.564-0.286,1.161-0.428,1.791-0.428  c0.716,0,1.314,0.113,1.79,0.34s0.85,0.541,1.121,0.943c0.27,0.404,0.461,0.877,0.57,1.418c0.111,0.543,0.165,1.129,0.165,1.758  v6.131h-1.977v-5.889c0-0.439-0.022-0.838-0.066-1.197s-0.146-0.67-0.307-0.934c-0.162-0.264-0.392-0.465-0.693-0.604  c-0.3-0.14-0.699-0.209-1.196-0.209c-0.646,0-1.14,0.128-1.484,0.385c-0.344,0.256-0.593,0.582-0.747,0.978  c-0.154,0.396-0.246,0.836-0.275,1.318c-0.029,0.483-0.044,0.96-0.044,1.428v4.725h-1.977V81.668h1.977V83.052z"></path>
<polygon fill="#589491" points="150.275,91.951 148.299,91.951 148.299,83.513 147.222,83.513 147.222,81.668 148.299,81.668   148.299,77.734 150.275,77.734 150.275,81.668 152.21,81.668 152.21,83.513 150.275,83.513 "></polygon>
<path fill="#589491" d="M164.139,82.964h0.045c0.291-0.452,0.68-0.834,1.164-1.142c0.482-0.309,1.002-0.461,1.56-0.461  c0.674,0,1.252,0.16,1.735,0.482c0.484,0.323,0.894,0.77,1.23,1.34c0.322-0.556,0.766-1,1.329-1.33  c0.563-0.328,1.176-0.492,1.836-0.492c0.673,0,1.229,0.119,1.67,0.361c0.438,0.241,0.787,0.567,1.043,0.979  c0.256,0.409,0.435,0.883,0.539,1.417c0.103,0.534,0.153,1.096,0.153,1.681v6.152h-1.978v-5.823c0-0.321-0.019-0.661-0.055-1.021  c-0.037-0.359-0.121-0.686-0.253-0.979c-0.133-0.293-0.322-0.535-0.571-0.725c-0.25-0.19-0.594-0.286-1.032-0.286  c-0.529,0-0.941,0.125-1.242,0.374c-0.301,0.248-0.527,0.561-0.681,0.934s-0.25,0.78-0.286,1.219  c-0.037,0.439-0.055,0.857-0.055,1.254v5.053h-1.979v-5.449c0-0.337-0.014-0.703-0.043-1.099s-0.103-0.761-0.22-1.099  c-0.118-0.336-0.304-0.619-0.562-0.846c-0.256-0.227-0.61-0.341-1.064-0.341c-0.527,0-0.945,0.121-1.253,0.362  c-0.308,0.242-0.538,0.55-0.692,0.924c-0.153,0.373-0.248,0.783-0.285,1.23c-0.036,0.446-0.055,0.867-0.055,1.264v5.053h-1.978  V81.668h1.978V82.964z"></path>
<path fill="#589491" d="M184.814,90.545c0.543,0,1.019-0.1,1.43-0.297c0.408-0.198,0.757-0.469,1.043-0.813  c0.285-0.345,0.502-0.74,0.648-1.187c0.146-0.447,0.219-0.927,0.219-1.44c0-0.496-0.073-0.969-0.219-1.416  c-0.146-0.447-0.363-0.839-0.648-1.176c-0.286-0.337-0.639-0.604-1.055-0.802c-0.418-0.198-0.891-0.297-1.418-0.297  c-0.512,0-0.971,0.103-1.373,0.308c-0.402,0.206-0.744,0.48-1.021,0.824c-0.279,0.344-0.49,0.736-0.636,1.175  c-0.148,0.44-0.222,0.901-0.222,1.384c0,0.484,0.073,0.949,0.222,1.396c0.146,0.447,0.354,0.846,0.626,1.197  c0.27,0.352,0.607,0.631,1.01,0.836C183.822,90.441,184.288,90.545,184.814,90.545 M190.023,91.951h-1.979v-1.604h-0.044  c-0.396,0.586-0.89,1.059-1.483,1.418c-0.593,0.357-1.263,0.536-2.01,0.536c-0.791,0-1.49-0.149-2.098-0.45  c-0.609-0.3-1.121-0.707-1.538-1.22c-0.418-0.512-0.737-1.104-0.956-1.778c-0.221-0.674-0.33-1.377-0.33-2.109  c0-0.704,0.113-1.381,0.34-2.033c0.229-0.65,0.551-1.223,0.967-1.714c0.418-0.49,0.928-0.886,1.527-1.187  c0.6-0.3,1.273-0.449,2.021-0.449c0.762,0,1.443,0.182,2.045,0.549c0.599,0.365,1.104,0.855,1.515,1.472h0.044v-1.714h1.979V91.951z  "></path>
<path fill="#589491" d="M195.867,83.052h0.044c0.308-0.556,0.743-0.977,1.308-1.263c0.563-0.286,1.16-0.428,1.791-0.428  c0.717,0,1.314,0.113,1.791,0.34c0.475,0.227,0.85,0.541,1.12,0.943c0.271,0.404,0.462,0.877,0.57,1.418  c0.11,0.543,0.165,1.129,0.165,1.758v6.131h-1.977v-5.889c0-0.439-0.022-0.838-0.066-1.197s-0.146-0.67-0.307-0.934  c-0.162-0.264-0.393-0.465-0.693-0.604s-0.699-0.209-1.197-0.209c-0.645,0-1.139,0.128-1.482,0.385  c-0.345,0.256-0.594,0.582-0.748,0.978c-0.153,0.396-0.246,0.836-0.274,1.318c-0.028,0.483-0.044,0.96-0.044,1.428v4.725h-1.977  V81.668h1.977V83.052z"></path>
<path fill="#589491" d="M211.115,90.545c0.542,0,1.018-0.1,1.43-0.297c0.408-0.198,0.756-0.469,1.043-0.813  c0.285-0.345,0.502-0.74,0.647-1.187c0.146-0.447,0.22-0.927,0.22-1.44c0-0.496-0.074-0.969-0.22-1.416s-0.362-0.839-0.647-1.176  c-0.287-0.337-0.639-0.604-1.056-0.802c-0.418-0.198-0.89-0.297-1.417-0.297c-0.512,0-0.971,0.103-1.373,0.308  c-0.402,0.206-0.744,0.48-1.021,0.824c-0.279,0.344-0.491,0.736-0.637,1.175c-0.147,0.44-0.221,0.901-0.221,1.384  c0,0.484,0.073,0.949,0.221,1.396c0.146,0.447,0.354,0.846,0.627,1.197c0.27,0.352,0.606,0.631,1.01,0.836  C210.123,90.441,210.588,90.545,211.115,90.545 M216.323,91.951h-1.978v-1.604h-0.045c-0.396,0.586-0.889,1.059-1.482,1.418  c-0.593,0.357-1.264,0.536-2.01,0.536c-0.791,0-1.491-0.149-2.098-0.45c-0.609-0.3-1.121-0.707-1.539-1.22  c-0.418-0.512-0.736-1.104-0.955-1.778c-0.221-0.674-0.33-1.377-0.33-2.109c0-0.704,0.113-1.381,0.34-2.033  c0.229-0.65,0.55-1.223,0.967-1.714c0.418-0.49,0.928-0.886,1.527-1.187c0.6-0.3,1.273-0.449,2.021-0.449  c0.763,0,1.444,0.182,2.046,0.549c0.598,0.365,1.104,0.855,1.514,1.472h0.045v-1.714h1.978V91.951z"></path>
<path fill="#589491" d="M224.607,90.545c0.541,0,1.018-0.1,1.428-0.297c0.408-0.198,0.757-0.469,1.043-0.813  c0.285-0.345,0.503-0.74,0.648-1.188c0.146-0.446,0.219-0.926,0.219-1.438c0-0.498-0.072-0.97-0.219-1.418  c-0.146-0.446-0.363-0.838-0.648-1.175c-0.286-0.337-0.637-0.604-1.055-0.803c-0.418-0.197-0.89-0.295-1.416-0.295  c-0.514,0-0.972,0.102-1.375,0.307c-0.401,0.206-0.744,0.48-1.021,0.824s-0.49,0.736-0.637,1.175  c-0.146,0.44-0.219,0.901-0.219,1.385s0.072,0.948,0.219,1.396s0.355,0.846,0.627,1.197s0.607,0.631,1.01,0.836  C223.613,90.441,224.079,90.545,224.607,90.545 M229.814,91.752c0,0.88-0.073,1.693-0.22,2.439c-0.147,0.748-0.407,1.393-0.78,1.934  c-0.373,0.543-0.887,0.964-1.539,1.265c-0.65,0.299-1.475,0.45-2.471,0.45c-0.718,0-1.377-0.107-1.978-0.319  s-1.121-0.519-1.56-0.922c-0.44-0.403-0.785-0.892-1.033-1.461c-0.25-0.571-0.381-1.224-0.396-1.956h1.979  c0,0.923,0.285,1.637,0.856,2.143c0.571,0.504,1.312,0.758,2.22,0.758c0.615,0,1.112-0.1,1.494-0.297  c0.381-0.198,0.678-0.465,0.889-0.803c0.213-0.337,0.359-0.736,0.44-1.197c0.08-0.461,0.12-0.955,0.12-1.483v-1.955h-0.044  c-0.396,0.586-0.894,1.06-1.493,1.418c-0.602,0.358-1.268,0.537-2,0.537c-0.791,0-1.494-0.149-2.109-0.449  c-0.615-0.301-1.131-0.707-1.549-1.221c-0.416-0.511-0.732-1.104-0.945-1.778s-0.318-1.377-0.318-2.109  c0-0.703,0.113-1.381,0.34-2.033c0.229-0.651,0.551-1.223,0.969-1.713c0.418-0.491,0.922-0.887,1.516-1.188  c0.593-0.3,1.263-0.449,2.01-0.449c0.775,0,1.465,0.182,2.066,0.549c0.6,0.365,1.104,0.871,1.515,1.516h0.044v-1.758h1.979V91.752z"></path>
<path fill="#589491" d="M240.734,85.645c-0.118-0.775-0.422-1.398-0.912-1.867c-0.491-0.469-1.132-0.703-1.923-0.703  c-0.776,0-1.429,0.242-1.955,0.725c-0.528,0.484-0.851,1.1-0.968,1.846H240.734z M234.867,87.139c0,0.44,0.073,0.865,0.22,1.274  c0.146,0.411,0.354,0.772,0.626,1.088s0.596,0.567,0.979,0.758c0.38,0.19,0.805,0.286,1.275,0.286c0.76,0,1.368-0.18,1.822-0.539  s0.871-0.846,1.253-1.461l1.669,0.945c-0.482,0.894-1.146,1.586-1.988,2.076s-1.769,0.735-2.779,0.735  c-0.791,0-1.498-0.139-2.12-0.417c-0.622-0.277-1.149-0.658-1.582-1.143c-0.433-0.483-0.767-1.055-1-1.713  c-0.233-0.659-0.351-1.369-0.351-2.131c0-0.791,0.104-1.524,0.317-2.197c0.214-0.674,0.528-1.262,0.945-1.758  c0.417-0.498,0.937-0.887,1.56-1.166c0.623-0.278,1.352-0.416,2.187-0.416c0.819,0,1.53,0.142,2.131,0.428  c0.601,0.285,1.101,0.674,1.495,1.165c0.395,0.489,0.691,1.069,0.89,1.735c0.197,0.666,0.296,1.381,0.296,2.142v0.308H234.867z"></path>
<path fill="#589491" d="M247.61,82.964h0.044c0.293-0.452,0.682-0.834,1.164-1.142c0.483-0.309,1.004-0.461,1.561-0.461  c0.674,0,1.252,0.16,1.736,0.482c0.483,0.323,0.893,0.77,1.229,1.34c0.323-0.556,0.766-1,1.329-1.33  c0.564-0.328,1.176-0.492,1.836-0.492c0.673,0,1.23,0.119,1.67,0.361c0.438,0.241,0.787,0.567,1.043,0.979  c0.256,0.409,0.436,0.883,0.539,1.417c0.102,0.534,0.152,1.096,0.152,1.681v6.152h-1.977v-5.823c0-0.321-0.02-0.661-0.055-1.021  c-0.037-0.359-0.121-0.686-0.254-0.979c-0.131-0.293-0.321-0.535-0.57-0.725c-0.25-0.19-0.594-0.286-1.033-0.286  c-0.527,0-0.941,0.125-1.24,0.374c-0.302,0.248-0.528,0.561-0.682,0.934c-0.154,0.373-0.25,0.78-0.286,1.219  c-0.036,0.439-0.055,0.857-0.055,1.254v5.053h-1.978v-5.449c0-0.337-0.015-0.703-0.043-1.099c-0.031-0.396-0.104-0.761-0.221-1.099  c-0.117-0.336-0.304-0.619-0.561-0.846c-0.256-0.227-0.611-0.341-1.065-0.341c-0.526,0-0.944,0.121-1.253,0.362  c-0.307,0.242-0.537,0.55-0.691,0.924c-0.154,0.373-0.25,0.783-0.285,1.23c-0.037,0.446-0.056,0.867-0.056,1.264v5.053h-1.978  V81.668h1.978V82.964z"></path>
<path fill="#589491" d="M270.902,85.645c-0.117-0.775-0.423-1.398-0.912-1.867c-0.492-0.469-1.133-0.703-1.924-0.703  c-0.775,0-1.428,0.242-1.955,0.725c-0.527,0.484-0.85,1.1-0.967,1.846H270.902z M265.035,87.139c0,0.44,0.072,0.865,0.22,1.274  c0.146,0.411,0.354,0.772,0.627,1.088c0.271,0.315,0.596,0.567,0.978,0.758c0.379,0.19,0.805,0.286,1.274,0.286  c0.76,0,1.369-0.18,1.823-0.539c0.453-0.359,0.871-0.846,1.252-1.461l1.67,0.945c-0.483,0.894-1.146,1.586-1.988,2.076  c-0.843,0.49-1.77,0.735-2.779,0.735c-0.791,0-1.498-0.139-2.121-0.417c-0.621-0.277-1.149-0.658-1.582-1.143  c-0.432-0.483-0.766-1.055-1-1.713c-0.233-0.659-0.351-1.369-0.351-2.131c0-0.791,0.104-1.524,0.317-2.197  c0.214-0.674,0.529-1.262,0.945-1.758c0.418-0.498,0.938-0.887,1.562-1.166c0.622-0.278,1.35-0.416,2.185-0.416  c0.821,0,1.531,0.142,2.131,0.428c0.602,0.285,1.101,0.674,1.496,1.165c0.395,0.489,0.691,1.069,0.889,1.735  s0.297,1.381,0.297,2.142v0.308H265.035z"></path>
<path fill="#589491" d="M277.844,83.052h0.044c0.308-0.556,0.743-0.977,1.308-1.263s1.16-0.428,1.791-0.428  c0.717,0,1.314,0.113,1.79,0.34s0.851,0.541,1.121,0.943c0.271,0.404,0.461,0.877,0.569,1.418c0.111,0.543,0.166,1.129,0.166,1.758  v6.131h-1.978v-5.889c0-0.439-0.022-0.838-0.065-1.197c-0.045-0.359-0.146-0.67-0.307-0.934c-0.162-0.264-0.393-0.465-0.693-0.604  s-0.699-0.209-1.196-0.209c-0.646,0-1.14,0.128-1.483,0.385c-0.345,0.256-0.594,0.582-0.748,0.978s-0.246,0.836-0.274,1.318  c-0.029,0.483-0.044,0.96-0.044,1.428v4.725h-1.977V81.668h1.977V83.052z"></path>
<polygon fill="#589491" points="290.917,91.951 288.94,91.951 288.94,83.513 287.864,83.513 287.864,81.668 288.94,81.668   288.94,77.734 290.917,77.734 290.917,81.668 292.85,81.668 292.85,83.513 290.917,83.513 "></polygon>
</svg>