<svg xmlns="http://www.w3.org/2000/svg" viewBox="0 0 400.09 145.4">
  <g id="Layer_2" data-name="Layer 2">
    <g id="Layer_1-2" data-name="Layer 1">
      <g>
        <g>
          <path d="M109,19.67,113.09,0H96.3L92,18.72l-.67,2.89h0L79.91,70.9l-4.8-18.54H63.34l-5,18.54L54,60H37.43l13,49.2H63l6.1-22.49,6.61,42.42c4.21-.19,8.29-1,11.77-4.7l19.28-93.56a58.63,58.63,0,1,1-20.57-11l2-10.09a69.23,69.23,0,1,0,20.82,10Z" fill="#08384b"/>
          <circle cx="68.94" cy="39.15" r="8.34" fill="#08384b"/>
        </g>
        <g>
          <g>
            <path d="M220.84,52.23c-5.34.76-6.1,1.37-8.16,7.62-2.52,7.63-8.62,27-12.81,40.64h-2.6c-4-11.89-9.07-26.61-13-37.89-4.43,13.11-8.93,26.15-12.89,37.89h-2.52c-3.81-13.11-8.16-27.37-12.27-40.71-2-6.18-2.82-7-7.78-7.55V50.09h18.83v2.14c-5.64.61-5.79,1.45-4.72,5.26,3,10.29,6,20.43,9.15,31.18,4.19-12.12,8.76-25.39,12.65-37.89h2.44c4.27,13,8.54,25,13,38,3.2-10.14,7.54-23.71,9.22-30.35,1.15-4.42.54-5.41-5.95-6.17V50.09h17.47Z" fill="#191919"/>
            <path d="M244.93,93.17c-4.88,6.1-10.22,7.4-12.66,7.4-9.3,0-14.94-7.63-14.94-16.39a19.62,19.62,0,0,1,4.95-13.35,15.65,15.65,0,0,1,11.36-5.56,11.89,11.89,0,0,1,11.67,11.81c-.08,1.53-.3,2.22-1.53,2.52-1.52.31-11.28,1-20.35,1.3-.23,10.21,6,14.41,11.43,14.41,3.13,0,6-1.3,8.85-3.89Zm-13.12-25c-3.5,0-6.94,3.28-8,9.46,4.27,0,8.54,0,13-.23,1.37,0,1.83-.38,1.83-1.53C238.75,71.82,236.08,68.16,231.81,68.16Z" fill="#191919"/>
            <path d="M293.8,100.26c-1,0-1.83-.07-2.82-.15-5.56-.38-8.54-1.83-11.89-6.56-2.82-3.88-5.57-8.69-8-12.58-1.52-2.44-2.52-2.89-6.4-2.89H262v12c0,6.48.84,6.86,6.94,7.47v2.13H248.59V97.52c6.33-.69,6.86-1,6.86-7.47V59.62c0-6.48-.84-6.71-6.86-7.39V50.09H268c5.57,0,9.3.69,12.2,2.59a11.41,11.41,0,0,1,5.19,10.07c0,6.56-4.2,10.67-9.84,13.11,1.37,2.37,4.65,7.48,6.94,10.91a69.79,69.79,0,0,0,6,7.85,11,11,0,0,0,5.57,3.51ZM265.67,75.48c4,0,6.48-.61,8.38-2.21,3-2.21,4.2-5.26,4.2-9.38,0-8.16-5.42-11.13-11.29-11.13-2.21,0-3.5.31-4,.76s-.91,1.3-.91,3.28V75.48Z" fill="#191919"/>
            <path d="M295.63,99.65V97.52c4.88-.46,5.49-.84,5.49-5.87V55.12c0-4.65-.38-5.1-5.26-5.71v-2a53.16,53.16,0,0,0,11.28-2.59V91.65c0,5,.46,5.41,5.42,5.87v2.13Z" fill="#191919"/>
            <path d="M316.52,99.65V97.52c4.8-.46,5.34-.84,5.34-6V75.79c0-4.73-.23-5-4.81-5.8V68.16a49.13,49.13,0,0,0,10.83-3V91.5c0,5.18.54,5.56,5.49,6v2.13Zm7.93-42a4.18,4.18,0,0,1-4-4,4.12,4.12,0,0,1,4.12-4.19,4,4,0,0,1,3.89,4.19A4.06,4.06,0,0,1,324.45,57.64Z" fill="#191919"/>
            <path d="M370.43,68.24c-4.12.53-4.65,1.14-6.64,5.72-2.51,6.1-6.86,16.24-10.82,26.53h-2.22c-3.2-8.77-6.93-17.84-10.52-26.76-1.75-4.42-2.36-4.88-6.33-5.49V66.18h15.56v2.06c-4.2.53-4.35,1.07-3.13,4.35,1.91,5.26,5.11,13.34,7.25,18.68,2.74-6.79,5.26-13,6.94-17.92,1.29-3.74,1.06-4.58-4-5.11V66.18h13.88Z" fill="#191919"/>
            <path d="M399.71,93.17c-4.88,6.1-10.22,7.4-12.66,7.4-9.3,0-14.95-7.63-14.95-16.39a19.58,19.58,0,0,1,5-13.35,15.65,15.65,0,0,1,11.36-5.56,11.89,11.89,0,0,1,11.67,11.81c-.08,1.53-.31,2.22-1.53,2.52-1.52.31-11.28,1-20.36,1.3-.23,10.21,6,14.41,11.44,14.41,3.13,0,6-1.3,8.85-3.89Zm-13.12-25c-3.51,0-6.94,3.28-8,9.46,4.27,0,8.54,0,13-.23,1.38,0,1.83-.38,1.83-1.53C393.53,71.82,390.86,68.16,386.59,68.16Z" fill="#191919"/>
          </g>
          <g>
            <path d="M352,121.64c0,3.56.09,5.11.53,5.55s1,.56,2.91.56c1.29,0,2.36,0,2.94-.73a3.4,3.4,0,0,0,.63-1.45c0-.2.07-.32.22-.32s.14.1.14.36A15.82,15.82,0,0,1,359,128c-.17.56-.24.66-1.53.66-2.09,0-4.15-.15-6.5-.15-.75,0-1.48.07-2.38.07-.27,0-.39-.05-.39-.19s.05-.15.2-.15a4.3,4.3,0,0,0,.72-.09c.49-.1.61-.63.71-1.34.12-1,.12-2.93.12-5.26v-4.27c0-3.79,0-4.47-.05-5.24s-.24-1.22-1-1.39a5.57,5.57,0,0,0-.83-.07c-.09,0-.19-.05-.19-.14s.12-.2.39-.2c1.09,0,2.62.08,2.74.08s1.89-.08,2.62-.08c.27,0,.39,0,.39.2s-.1.14-.2.14a7.22,7.22,0,0,0-.8.07c-.7.13-.9.54-.94,1.39s0,1.45,0,5.24Z" fill="#191919"/>
            <path d="M367.73,121.59c0,2.33,0,4.24.12,5.26.08.71.22,1.24.95,1.34.34,0,.87.09,1.09.09s.2.08.2.15-.12.19-.39.19c-1.34,0-2.86-.07-3-.07s-1.64.07-2.37.07c-.27,0-.39-.05-.39-.19s.05-.15.19-.15a4.55,4.55,0,0,0,.73-.09c.49-.1.61-.63.7-1.34.13-1,.13-2.93.13-5.26V111.33l-3.59,0c-1.51,0-2.09.2-2.48.78a3.76,3.76,0,0,0-.41.75c-.07.2-.15.24-.24.24s-.13-.07-.13-.21.49-2.33.54-2.53.14-.46.24-.46a4.11,4.11,0,0,0,1.07.29c.7.08,1.62.13,1.91.13h9.1a8.78,8.78,0,0,0,1.72-.13c.37,0,.59-.12.68-.12s.12.15.12.29c0,.73-.07,2.41-.07,2.67s-.07.32-.17.32-.17-.08-.19-.41c0-.1,0-.17,0-.27-.07-.73-.65-1.29-3-1.34l-3.06,0Z" fill="#191919"/>
            <path d="M379.33,117.32c0-3.79,0-4.47-.05-5.24s-.17-1.22-1-1.39a5.57,5.57,0,0,0-.83-.07c-.17,0-.26-.05-.26-.14s.12-.2.38-.2c1.09,0,2.62.08,2.74.08.3,0,1.82-.08,3.28-.08,2.4,0,6.84-.22,9.73,2.77a8.67,8.67,0,0,1,2.35,6.16,9.9,9.9,0,0,1-2.62,6.84,9.64,9.64,0,0,1-7.35,2.79c-1,0-2.33-.07-3.37-.14l-2-.15-1,0c-.48,0-1,.05-1.4.05s-.39-.05-.39-.19.05-.15.24-.15a5.93,5.93,0,0,0,.68-.09c.49-.1.61-.63.7-1.34.13-1,.13-2.93.13-5.26Zm2,2.62c0,2.57,0,4.8.05,5.26a5.57,5.57,0,0,0,.27,1.85c.31.46,1.26,1,4.12,1a8.16,8.16,0,0,0,5.78-2.26,8.51,8.51,0,0,0,1.94-5.8,8.68,8.68,0,0,0-2.33-6.11c-2.28-2.4-5.05-2.74-7.93-2.74a6.31,6.31,0,0,0-1.58.17.43.43,0,0,0-.29.48c0,.83,0,3.3,0,5.17Z" fill="#191919"/>
            <path d="M397.56,127.46a1.28,1.28,0,0,1,1.29-1.29,1.21,1.21,0,0,1,1.24,1.26,1.27,1.27,0,1,1-2.53,0Z" fill="#191919"/>
          </g>
        </g>
      </g>
    </g>
  </g>
</svg>
